#!OML:ASF G:\JayActor3\Patient Classification 1\Patient 1\Session 2\male.ASF
:FULLY-SPECIFIED
:DEGREES
1015
root 36.1378 15.6327 -1.13579 -755.278 79.116 -22.0656
lowerback 14.7555 -2.38659 -13.9202
upperback 7.06893 -4.56873 -5.40197
thorax 0.0611058 -2.32914 2.65906
lowerneck -8.57199 4.27851 3.82417
upperneck 9.4467 4.34042 10.9525
head 4.09406 2.97986 3.0117
rclavicle -2.70347e-014 -9.54166e-015
rhumerus -21.7288 14.8088 -43.2625
rradius 68.084
rwrist -16.3947
rhand -5.93837 13.1611
rfingers 7.12502
rthumb 19.8916 -15.8409
lclavicle -2.70347e-014 -9.54166e-015
lhumerus 0.362165 -42.2026 82.4753
lradius 40.9553
lwrist 20.8793
lhand -25.3272 18.7674
lfingers 7.12502
lthumb 1.19552 48.7438
rfemur -47.0319 -20.2513 31.0867
rtibia 42.062
rfoot 6.51172 -11.1276
rtoes 42.5879
lfemur 4.00933 32.0766 -22.3218
ltibia 37.4868
lfoot -35.0832 26.2692
ltoes 3.76772
1016
root 36.3148 15.6385 -1.14722 -755.422 79.6123 -22.8206
lowerback 14.1735 -2.7613 -13.8175
upperback 6.9003 -4.98082 -5.36906
thorax 0.238862 -2.54419 2.65595
lowerneck -8.55612 4.5483 3.91939
upperneck 9.40605 4.73884 10.4119
head 4.0773 3.14077 2.8508
rclavicle -2.20651e-014 3.18055e-015
rhumerus -23.8775 15.0706 -44.9514
rradius 67.3569
rwrist -16.0154
rhand -5.98727 13.2228
rfingers 7.12502
rthumb 19.8446 -15.7841
lclavicle -2.20651e-014 3.18055e-015
lhumerus -1.13829 -42.9503 84.4033
lradius 41.6508
lwrist 21.3028
lhand -25.1743 18.7131
lfingers 7.12502
lthumb 1.34318 48.6886
rfemur -45.6495 -19.459 31.6546
rtibia 42.549
rfoot 7.13114 -11.2112
rtoes 42.9111
lfemur 4.36164 31.5878 -22.6745
ltibia 36.9039
lfoot -35.2313 26.1492
ltoes 3.59525
1017
root 36.4926 15.6462 -1.16185 -757.119 80.2068 -25.1662
lowerback 13.6287 -3.18922 -13.4655
upperback 6.73056 -5.44599 -5.26545
thorax 0.381102 -2.78103 2.59651
lowerneck -8.56738 4.78524 4.01478
upperneck 9.40527 5.08818 9.85595
head 4.082 3.27946 2.68486
rclavicle 3.51849e-014 -1.27222e-014
rhumerus -26.0479 15.0987 -46.5234
rradius 66.5834
rwrist -15.6965
rhand -6.03006 13.2831
rfingers 7.12502
rthumb 19.8035 -15.7281
lclavicle 3.51849e-014 -1.27222e-014
lhumerus -2.58585 -43.7126 86.3628
lradius 42.3446
lwrist 21.7691
lhand -25.0193 18.6528
lfingers 7.12502
lthumb 1.4929 48.6273
rfemur -44.2184 -18.6514 32.2018
rtibia 42.9627
rfoot 7.81393 -11.3048
rtoes 43.2019
lfemur 4.66583 30.9384 -22.8548
ltibia 36.3816
lfoot -35.3457 26.0095
ltoes 3.32508
1018
root 36.6714 15.655 -1.18046 -760.514 80.8864 -29.2422
lowerback 13.1058 -3.65775 -12.89
upperback 6.55981 -5.95134 -5.10392
thorax 0.492351 -3.03366 2.47812
lowerneck -8.61432 4.98288 4.10507
upperneck 9.44794 5.37997 9.28808
head 4.11025 3.39172 2.51571
rclavicle 6.0033e-014 2.22639e-014
rhumerus -28.2493 14.9091 -47.9563
rradius 65.7918
rwrist -15.4104
rhand -6.04805 13.3391
rfingers 7.12502
rthumb 19.7862 -15.6738
lclavicle 6.0033e-014 2.22639e-014
lhumerus -3.95675 -44.5386 88.3353
lradius 43.0251
lwrist 22.266
lhand -24.8575 18.5883
lfingers 7.12502
lthumb 1.64924 48.5617
rfemur -42.7679 -17.8628 32.7315
rtibia 43.2865
rfoot 8.57663 -11.3145
rtoes 43.36
lfemur 4.92839 30.135 -22.9035
ltibia 35.915
lfoot -35.4315 25.8408
ltoes 2.94666
1019
root 36.8518 15.6645 -1.20277 -765.786 81.6331 -35.2185
lowerback 12.5855 -4.15217 -12.1578
upperback 6.38875 -6.48341 -4.89852
thorax 0.585533 -3.29698 2.31801
lowerneck -8.70125 5.13677 4.18049
upperneck 9.52667 5.61005 8.71437
head 4.15957 3.47483 2.34638
rclavicle 4.53229e-014 1.90833e-014
rhumerus -30.485 14.5204 -49.2339
rradius 65.0049
rwrist -15.1159
rhand -6.02275 13.3864
rfingers 7.12502
rthumb 19.8105 -15.624
lclavicle 4.53229e-014 1.90833e-014
lhumerus -5.23346 -45.4669 90.308
lradius 43.6844
lwrist 22.7637
lhand -24.6777 18.5144
lfingers 7.12502
lthumb 1.82284 48.4864
rfemur -41.3259 -17.1097 33.21
rtibia 43.5046
rfoot 9.48528 -11.0497
rtoes 43.1822
lfemur 5.16504 29.197 -22.8725
ltibia 35.4879
lfoot -35.4607 25.6278
ltoes 2.42186
1020
root 37.0342 15.675 -1.22759 -773.227 82.4178 -43.3819
lowerback 12.0468 -4.65732 -11.3621
upperback 6.21795 -7.02942 -4.66215
thorax 0.679743 -3.56691 2.14846
lowerneck -8.82916 5.24517 4.23359
upperneck 9.62838 5.77844 8.13686
head 4.22513 3.52771 2.17814
rclavicle -7.81224e-014 -4.45278e-014
rhumerus -32.7482 13.9519 -50.3474
rradius 64.2351
rwrist -14.7774
rhand -5.94022 13.4173
rfingers 7.12502
rthumb 19.8898 -15.5849
lclavicle -7.81224e-014 -4.45278e-014
lhumerus -6.40686 -46.5165 92.273
lradius 44.3196
lwrist 23.225
lhand -24.4609 18.4217
lfingers 7.12502
lthumb 2.0322 48.3918
rfemur -39.9204 -16.3897 33.5851
rtibia 43.5932
rfoot 10.5838 -10.2125
rtoes 42.4353
lfemur 5.39636 28.1569 -22.8131
ltibia 35.0757
lfoot -35.3776 25.3554
ltoes 1.6887
1021
root 37.219 15.6876 -1.25336 -783.337 83.1841 -54.2265
lowerback 11.4709 -5.15898 -10.5999
upperback 6.04713 -7.5776 -4.40511
thorax 0.795443 -3.83985 2.00624
lowerneck -8.99001 5.30908 4.2564
upperneck 9.73383 5.88996 7.5571
head 4.29862 3.55127 2.01195
rclavicle -3.65764e-014 -1.90833e-014
rhumerus -35.0196 13.2232 -51.2953
rradius 63.4811
rwrist -14.3857
rhand -5.79606 13.4253
rfingers 7.12502
rthumb 20.0284 -15.5625
lclavicle -3.65764e-014 -1.90833e-014
lhumerus -7.47896 -47.6821 94.2277
lradius 44.9336
lwrist 23.6138
lhand -24.1858 18.3001
lfingers 7.12502
lthumb 2.29787 48.2675
rfemur -38.579 -15.6852 33.8045
rtibia 43.5226
rfoot 11.7197 -8.46926
rtoes 40.9537
lfemur 5.64359 27.0558 -22.766
ltibia 34.6488
lfoot -35.1137 25.0123
ltoes 0.678184
1022
root 37.4066 15.7038 -1.27875 -796.732 83.8273 -68.365
lowerback 10.8503 -5.64423 -9.95143
upperback 5.87518 -8.11679 -4.13506
thorax 0.946878 -4.11179 1.92307
lowerneck -9.17092 5.33105 4.24479
upperneck 9.82506 5.95116 6.97357
head 4.37155 3.54747 1.84719
rclavicle -4.57205e-015 -3.18055e-015
rhumerus -37.2705 12.3548 -52.0841
rradius 62.7282
rwrist -13.9678
rhand -5.59689 13.4072
rfingers 7.12502
rthumb 20.2198 -15.5604
lclavicle -4.57205e-015 -3.18055e-015
lhumerus -8.4632 -48.9371 96.1739
lradius 45.5351
lwrist 23.9076
lhand -23.8372 18.1431
lfingers 7.12502
lthumb 2.63457 48.1066
rfemur -37.3251 -14.9693 33.8272
rtibia 43.2662
rfoot 12.3882 -5.69016
rtoes 38.7606
lfemur 5.92783 25.9393 -22.7541
ltibia 34.1797
lfoot -34.6066 24.5957
ltoes -0.673203
1023
root 37.5971 15.7254 -1.30304 -813.521 84.1816 -85.8961
lowerback 10.1909 -6.10223 -9.46454
upperback 5.70069 -8.63603 -3.85721
thorax 1.13823 -4.37786 1.91735
lowerneck -9.35549 5.31407 4.19692
upperneck 9.8871 5.96854 6.38615
head 4.43596 3.51872 1.68339
rclavicle 3.75703e-014 1.90833e-014
rhumerus -39.4676 11.3694 -52.7286
rradius 61.9525
rwrist -13.5833
rhand -5.36188 13.3649
rfingers 7.12502
rthumb 20.4457 -15.5786
lclavicle 3.75703e-014 1.90833e-014
lhumerus -9.38312 -50.2404 98.1159
lradius 46.1369
lwrist 24.1043
lhand -23.4132 17.9523
lfingers 7.12502
lthumb 3.0441 47.9103
rfemur -36.1752 -14.2105 33.6325
rtibia 42.8171
rfoot 11.8685 -2.29196
rtoes 36.1756
lfemur 6.26562 24.8514 -22.7786
ltibia 33.6523
lfoot -33.822 24.0995
ltoes -2.38736
1024
root 37.7902 15.7534 -1.32616 -832.055 84.0661 -105.159
lowerback 9.51121 -6.52402 -9.14762
upperback 5.52193 -9.1239 -3.57454
thorax 1.36122 -4.63197 1.99124
lowerneck -9.52669 5.2602 4.1125
upperneck 9.91114 5.94629 5.79699
head 4.48581 3.46697 1.5206
rclavicle -1.01778e-013 -9.54166e-015
rhumerus -41.5797 10.2937 -53.2523
rradius 61.1268
rwrist -13.3063
rhand -5.12103 13.3048
rfingers 7.12502
rthumb 20.6771 -15.6138
lclavicle -1.01778e-013 -9.54166e-015
lhumerus -10.2707 -51.5452 100.061
lradius 46.7529
lwrist 24.2241
lhand -22.9312 17.7389
lfingers 7.12502
lthumb 3.50956 47.6898
rfemur -35.1396 -13.3748 33.2233
rtibia 42.2015
rfoot 9.75149 0.742538
rtoes 33.7831
lfemur 6.66261 23.8295 -22.8208
ltibia 33.0714
lfoot -32.7659 23.5142
ltoes -4.42822
1025
root 37.9851 15.7876 -1.34848 -849.098 83.4111 -122.903
lowerback 8.8369 -6.90103 -8.97696
upperback 5.33831 -9.5673 -3.28951
thorax 1.59906 -4.86648 2.13266
lowerneck -9.67109 5.1709 3.99421
upperneck 9.89399 5.88626 5.21063
head 4.51755 3.3937 1.35942
rclavicle 6.0033e-014 -1.59028e-015
rhumerus -43.5817 9.1569 -53.6873
rradius 60.2265
rwrist -13.199
rhand -4.91075 13.2367
rfingers 7.12502
rthumb 20.8792 -15.6597
lclavicle 6.0033e-014 -1.59028e-015
lhumerus -11.16 -52.8132 102.012
lradius 47.397
lwrist 24.3097
lhand -22.4257 17.5229
lfingers 7.12502
lthumb 3.99765 47.4652
rfemur -34.2207 -12.4342 32.6239
rtibia 41.4844
rfoot 6.31807 2.46022
rtoes 32.0115
lfemur 7.11002 22.903 -22.8504
ltibia 32.4676
lfoot -31.4823 22.8283
ltoes -6.70049
